<?xml version="1.0" encoding="UTF-8"?>
<svg xmlns="http://www.w3.org/2000/svg" xmlns:xlink="http://www.w3.org/1999/xlink" width="165pt" height="82.499998pt" viewBox="0 0 165 82.499998" version="1.2">
<defs>
<clipPath id="clip1">
  <path d="M 0.496094 0 L 164.503906 0 L 164.503906 82.003906 L 0.496094 82.003906 Z M 0.496094 0 "/>
</clipPath>
<clipPath id="clip2">
  <path d="M 8.699219 26 L 45 26 L 45 57 L 8.699219 57 Z M 8.699219 26 "/>
</clipPath>
</defs>
<g id="surface1">
<g clip-path="url(#clip1)" clip-rule="nonzero">
<path style=" stroke:none;fill-rule:nonzero;fill:rgb(100%,100%,100%);fill-opacity:1;" d="M 0.496094 0 L 164.503906 0 L 164.503906 89.457031 L 0.496094 89.457031 Z M 0.496094 0 "/>
<path style=" stroke:none;fill-rule:nonzero;fill:rgb(100%,100%,100%);fill-opacity:1;" d="M 0.496094 0 L 164.503906 0 L 164.503906 82.003906 L 0.496094 82.003906 Z M 0.496094 0 "/>
<path style=" stroke:none;fill-rule:nonzero;fill:rgb(100%,100%,100%);fill-opacity:1;" d="M 0.496094 0 L 164.503906 0 L 164.503906 82.003906 L 0.496094 82.003906 Z M 0.496094 0 "/>
</g>
<path style=" stroke:none;fill-rule:nonzero;fill:rgb(100%,48.239136%,0%);fill-opacity:1;" d="M 32.671875 50.3125 L 26.410156 44.027344 L 20.148438 50.3125 C 23.605469 53.785156 29.214844 53.785156 32.671875 50.3125 "/>
<path style=" stroke:none;fill-rule:nonzero;fill:rgb(0%,36.079407%,50.19989%);fill-opacity:1;" d="M 32.671875 50.3125 C 36.132812 46.84375 36.132812 41.214844 32.671875 37.742188 C 29.214844 34.273438 23.605469 34.273438 20.148438 37.742188 C 16.6875 41.214844 16.6875 46.84375 20.148438 50.3125 L 26.410156 44.027344 Z M 32.671875 50.3125 "/>
<g clip-path="url(#clip2)" clip-rule="nonzero">
<path style=" stroke:none;fill-rule:nonzero;fill:rgb(0%,65.489197%,88.62915%);fill-opacity:1;" d="M 13.886719 31.460938 C 6.96875 38.402344 6.96875 49.65625 13.886719 56.597656 L 20.148438 50.3125 C 16.6875 46.84375 16.6875 41.214844 20.148438 37.746094 C 23.605469 34.273438 29.214844 34.273438 32.671875 37.746094 C 36.128906 41.214844 36.128906 46.84375 32.671875 50.3125 L 38.933594 56.597656 C 45.851562 49.65625 45.851562 38.402344 38.933594 31.460938 C 32.015625 24.519531 20.804688 24.519531 13.886719 31.460938 "/>
</g>
<path style=" stroke:none;fill-rule:nonzero;fill:rgb(0%,0%,0%);fill-opacity:1;" d="M 56.300781 52.765625 C 58.828125 52.179688 61.828125 49.566406 61.828125 44.898438 L 61.855469 31.460938 L 57.738281 31.460938 L 57.738281 44.605469 C 57.738281 47.914062 55.984375 49.59375 53.699219 50.125 Z M 73.464844 48.871094 C 78.167969 48.871094 82.578125 45.40625 82.578125 39.941406 C 82.578125 34.472656 78.140625 31.035156 73.464844 31.035156 C 68.761719 31.035156 64.328125 34.5 64.328125 39.941406 C 64.328125 45.433594 68.789062 48.871094 73.464844 48.871094 Z M 73.464844 45.246094 C 70.914062 45.246094 68.523438 43.167969 68.523438 39.992188 C 68.523438 36.820312 70.914062 34.742188 73.464844 34.742188 C 75.992188 34.742188 78.40625 36.820312 78.40625 39.992188 C 78.40625 43.167969 75.992188 45.246094 73.464844 45.246094 Z M 91.082031 48.472656 C 94.269531 48.472656 96.875 46.472656 96.875 43.167969 C 96.875 41.007812 95.414062 39.246094 93.925781 38.765625 C 94.828125 38.261719 95.332031 36.980469 95.332031 35.96875 C 95.332031 33.195312 92.996094 31.460938 90.363281 31.460938 L 84.8125 31.460938 L 84.8125 48.472656 Z M 89.726562 38.019531 L 88.503906 38.019531 L 88.503906 34.527344 L 89.726562 34.527344 C 90.710938 34.527344 91.613281 35.035156 91.613281 36.289062 C 91.613281 37.515625 90.710938 38.019531 89.726562 38.019531 Z M 90.390625 45.460938 L 88.503906 45.460938 L 88.503906 41.007812 L 90.390625 41.007812 C 91.664062 41.007812 92.914062 41.726562 92.914062 43.246094 C 92.914062 44.792969 91.640625 45.460938 90.390625 45.460938 Z M 106.890625 48.472656 L 106.890625 34.847656 L 111.753906 34.847656 L 111.753906 31.460938 L 97.910156 31.460938 L 97.910156 34.847656 L 102.773438 34.847656 L 102.773438 48.472656 Z M 123.839844 48.472656 L 123.839844 45.085938 L 117.359375 45.085938 L 117.359375 41.671875 L 122.035156 41.671875 L 122.035156 38.207031 L 117.359375 38.207031 L 117.359375 34.847656 L 123.042969 34.847656 L 123.042969 31.460938 L 113.320312 31.460938 L 113.320312 48.472656 Z M 133.9375 48.710938 C 135.664062 48.710938 136.886719 48.5 137.789062 48.074219 L 138.136719 44.472656 C 137.257812 44.953125 136.007812 45.21875 134.601562 45.21875 C 131.386719 45.21875 128.996094 43.140625 128.996094 40.019531 C 128.996094 36.875 131.414062 34.847656 134.414062 34.847656 C 135.824219 34.847656 137.125 35.246094 137.921875 35.726562 L 138.691406 32.234375 C 137.683594 31.648438 136.035156 31.195312 133.9375 31.195312 C 129.578125 31.195312 124.851562 34.207031 124.851562 39.96875 C 124.851562 45.726562 129.554688 48.710938 133.9375 48.710938 Z M 145.042969 48.472656 L 145.042969 41.726562 L 151.578125 41.726562 L 151.578125 48.472656 L 155.695312 48.472656 L 155.695312 31.460938 L 151.578125 31.460938 L 151.578125 38.152344 L 145.042969 38.152344 L 145.042969 31.460938 L 140.925781 31.460938 L 140.925781 48.472656 Z M 145.042969 48.472656 "/>
</g>
</svg>
